<svg width="252" height="205" viewBox="0 0 252 205" fill="none" xmlns="http://www.w3.org/2000/svg">
<g id="Rock">
<path id="shadow" d="M17.6048 95.3965C17.5604 147.805 40.2445 171.501 66.7551 175.195C66.7728 175.195 96.1423 181.605 109.504 179.412C118.56 177.938 126.79 180.087 133.298 180.024C142.851 179.936 154.277 182.715 168.421 181.365C192.365 179.074 249 178.746 249 95.3876C249 83.7748 246.31 72.6592 241.427 62.4314C224.789 27.6817 182.652 3 133.298 3C123.656 3 114.725 3.79017 106.432 5.23734C42.5706 16.3086 17.6403 66.2046 17.6137 95.3787L17.6048 95.3965Z" fill="#ACACAC"/>
<path id="light" d="M19.2651 83.6415C19.2651 146.012 79.9483 160.545 161.265 141.901C233.809 125.272 195.979 24.0326 167.879 12.2866C146.172 3.21299 150.806 8.69091 106.423 5.255C54.5918 14.4085 19.2651 69.5694 19.2651 83.6415Z" fill="#C8C8C8"/>
<path id="crack" d="M193.431 44.4084L193.191 32.8222L203.17 22.0617L193.191 32.8222C193.191 32.8222 176.003 36.56 177.05 55.1245" stroke="#949494" stroke-width="5.6" stroke-linecap="round" stroke-linejoin="round"/>
<path id="body" d="M17.6047 95.3877C15.3585 190.51 99.0366 180.353 133.298 180.025C167.559 179.705 248.991 197.151 248.991 95.3877C248.991 83.7837 246.31 72.6681 241.418 62.4403C224.798 27.6906 182.661 3.01782 133.298 3.01782C49.4601 3.01782 18.3772 62.4492 17.6047 95.3966V95.3877Z" stroke="#333333" stroke-width="5.6" stroke-linecap="round" stroke-linejoin="round"/>
<path id="left leg" d="M155.742 180.3L134.177 147.255C132.375 144.493 128.264 144.698 126.746 147.619L98.859 201.155C98.5305 201.679 82.7715 201.155 82.7715 201.155" stroke="#333333" stroke-width="5.6" stroke-linecap="round" stroke-linejoin="round"/>
<path id="right leg" d="M75.9708 175.985L54.4054 142.94C52.6031 140.179 48.4924 140.383 46.9742 143.304L19.0875 196.84C18.759 197.364 3 196.84 3 196.84" stroke="#333333" stroke-width="5.6" stroke-linecap="round" stroke-linejoin="round"/>
<path id="left hand" d="M212.075 73.9644C211.8 80.8273 247.943 106.894 208.32 124.588C206.73 125.299 206.331 127.385 207.565 128.61L212.617 133.635" stroke="#333333" stroke-width="5.6" stroke-linecap="round" stroke-linejoin="round"/>
<g id="face">
<g id="mouth">
<path id="mouth_2" d="M76.0863 71.8425C76.0863 81.7596 84.1212 88.4982 94.0382 88.4982H99.747C109.664 88.4982 117.202 81.7507 117.202 71.8425V67.4123C117.202 66.0716 116.11 64.9796 114.769 64.9796H78.5278C77.1872 64.9796 76.0952 66.0716 76.0952 67.4123V71.8425H76.0863Z" fill="#333333"/>
<path id="tongue" d="M97.6251 75.0742C102.863 75.0742 107.56 77.3559 110.809 80.9605C108.066 83.837 103.795 85.5417 98.9568 85.5417H94.6863C90.4159 85.5417 86.4739 84.2011 83.6417 81.9016C86.9001 77.7554 91.9429 75.083 97.6162 75.083L97.6251 75.0742Z" fill="#DA325F"/>
</g>
<path id="left eye" d="M141.51 65.237C141.439 61.7301 139.06 58.6937 134.967 58.6937C130.874 58.6937 128.504 61.6857 128.424 65.237" stroke="#333333" stroke-width="5.6" stroke-linecap="round" stroke-linejoin="round"/>
<path id="right eye" d="M58.8002 69.7382C54.9168 69.7382 51.7686 66.59 51.7686 62.7065C51.7686 58.8231 54.9168 55.6749 58.8002 55.6749C62.6837 55.6749 65.8318 58.8231 65.8318 62.7065C65.8318 66.59 62.6837 69.7382 58.8002 69.7382Z" fill="#333333"/>
<g id="cheeks">
<path id="left cheek" d="M136.698 88.9243C131.82 88.9243 127.865 86.2809 127.865 83.0202C127.865 79.7595 131.82 77.1161 136.698 77.1161C141.577 77.1161 145.532 79.7595 145.532 83.0202C145.532 86.2809 141.577 88.9243 136.698 88.9243Z" fill="#FF7ABE"/>
<path id="right cheek" d="M51.8574 88.9243C46.9786 88.9243 43.0235 86.281 43.0235 83.0203C43.0235 79.7595 46.9786 77.1162 51.8574 77.1162C56.7363 77.1162 60.6913 79.7595 60.6913 83.0203C60.6913 86.281 56.7363 88.9243 51.8574 88.9243Z" fill="#FF7ABE"/>
</g>
</g>
</g>
</svg>
